PathFileType  4	(X/Y/Z) C:\Users\antoi\Documents\MyRepositories\mobilecap\ResultsAnalysis
DataRate	CameraRate	NumFrames	NumMarkers	Units	OrigDataRate	OrigDataStartFrame	OrigNumFrames
100.0	100.0	4	51	mm	100.0	28	221
Frame#	Time	r_knee			r_shank_antsup			r_ankle			r_calc			r_5meta			r_toe			L_knee			L_shank_antsup			L_ankle			L_calc			L_5meta			L_toe			r_sh2			r_sh3			r_sh4			L_sh2			L_sh3			r_thigh1			r_thigh2			r_thigh3			r_thigh4			r_thigh5			L_thigh1			L_thigh2			L_thigh3			L_thigh4			r.ASIS			r.PSIS			L.ASIS			L.PSIS			C7			R_Shoulder			L_Shoulder			R_Sternum			L_Sternum			R_humerus			R_elbow_med			R_elbow_lat			R_forearm			R_wrist_radius			R_wrist_ulna			L_humerus			L_elbow_med			L_elbow_lat			L_forearm			L_wrist_radius			L_wrist_ulna			R_HJC			L_HJC			R_HJC_reg			L_HJC_reg			
		X1	Y1	Z1	X2	Y2	Z2	X3	Y3	Z3	X4	Y4	Z4	X5	Y5	Z5	X6	Y6	Z6	X7	Y7	Z7	X8	Y8	Z8	X9	Y9	Z9	X10	Y10	Z10	X11	Y11	Z11	X12	Y12	Z12	X13	Y13	Z13	X14	Y14	Z14	X15	Y15	Z15	X16	Y16	Z16	X17	Y17	Z17	X18	Y18	Z18	X19	Y19	Z19	X20	Y20	Z20	X21	Y21	Z21	X22	Y22	Z22	X23	Y23	Z23	X24	Y24	Z24	X25	Y25	Z25	X26	Y26	Z26	X27	Y27	Z27	X28	Y28	Z28	X29	Y29	Z29	X30	Y30	Z30	X31	Y31	Z31	X32	Y32	Z32	X33	Y33	Z33	X34	Y34	Z34	X35	Y35	Z35	X36	Y36	Z36	X37	Y37	Z37	X38	Y38	Z38	X39	Y39	Z39	X40	Y40	Z40	X41	Y41	Z41	X42	Y42	Z42	X43	Y43	Z43	X44	Y44	Z44	X45	Y45	Z45	X46	Y46	Z46	X47	Y47	Z47	X48	Y48	Z48	X49	Y49	Z49	X50	Y50	Z50	X51	Y51	Z51	

28	0.27000000	-1079.01129	763.80177	-450.21988	-1080.13941	689.54892	-428.00086	-1179.61948	400.04747	-466.62511	-1248.10602	361.51887	-505.99554	-1079.02184	356.05436	-437.86668	-1035.61767	379.03576	-492.54368	-1112.91895	766.97259	-720.30888	-1094.09389	699.44111	-726.21781	-1179.06904	400.84199	-723.36424	-1248.44482	363.07710	-676.24058	-1086.72190	353.09633	-749.18622	-1037.98541	378.73353	-695.38906	-1110.11633	579.46356	-425.44263	-1152.83698	706.89554	-436.83569	-1189.90329	597.51134	-435.76477	-1178.39909	722.05165	-749.07453	-1194.26777	600.95824	-756.98128	-998.15703	1073.35972	-447.96220	-994.42792	959.71814	-444.92917	-1040.91153	934.93964	-403.13185	-1091.60425	1070.05092	-380.67797	-1094.69077	953.39028	-397.78603	-1019.33995	1041.91836	-737.36519	-1030.87886	903.93323	-730.93822	-1133.57264	1050.38092	-762.11492	-1137.80447	909.69359	-746.91428	-1009.04289	1220.35484	-448.75800	-1188.72989	1252.16564	-523.30258	-999.87197	1210.58602	-703.16530	-1189.45987	1244.72402	-632.08703	-1091.00695	1707.96098	-586.30653	-1045.81424	1650.87916	-427.62771	-1014.20727	1652.09800	-746.13478	-979.64882	1618.21382	-558.84069	-976.42955	1617.44395	-602.56559	-1056.23736	1406.52423	-359.39635	-1095.14278	1306.99416	-422.52742	-1090.87830	1322.33391	-352.20246	-1024.35268	1219.74715	-331.00664	-977.74908	1110.14851	-328.43673	-1019.02396	1094.29164	-325.72595	-981.42937	1516.67551	-784.77045	-1055.54568	1308.68127	-740.66160	-1033.06126	1313.04599	-799.60811	-967.92806	1221.83485	-799.95198	-937.68125	1101.52094	-773.70972	-968.05230	1087.66942	-791.73548	-1080.00291	1150.17576	-473.59884	-1072.33514	1145.17701	-673.68157	-1075.21408	1147.42571	-479.24532	-1076.33986	1135.95086	-646.99237	
29	0.28000000	-1074.83650	762.74568	-450.14449	-1076.28827	688.63639	-428.06832	-1179.27228	400.19322	-466.58875	-1247.98496	361.72854	-505.95526	-1078.83527	355.70695	-437.94173	-1035.36483	378.36750	-492.65678	-1111.86659	766.80173	-719.97989	-1093.28014	699.30400	-725.91727	-1179.08474	400.85508	-723.51249	-1248.49634	363.04950	-676.23076	-1086.81854	353.08343	-749.13397	-1038.13591	378.73650	-695.42598	-1107.81891	578.92547	-425.28558	-1148.83905	707.08621	-436.91510	-1187.17950	597.94572	-435.68977	-1177.51047	722.30139	-748.89619	-1193.38272	601.22924	-757.28208	-996.56133	1072.54434	-447.67469	-991.39852	959.24382	-445.27151	-1037.90241	934.01247	-403.42264	-1089.41607	1068.86450	-380.56288	-1091.69753	952.20988	-397.70418	-1018.02704	1041.70329	-737.17657	-1029.79475	903.71292	-730.98218	-1132.30719	1050.45383	-761.77494	-1136.70663	909.61125	-746.58201	-1007.65124	1219.23958	-448.46051	-1186.85162	1252.26067	-522.72455	-998.53916	1209.73157	-702.60759	-1187.47819	1245.07373	-631.46771	-1085.30533	1707.52750	-585.23640	-1040.67623	1650.04584	-426.56990	-1008.38649	1651.42014	-744.65787	-974.48048	1617.12211	-557.67294	-971.26353	1616.31714	-601.35945	-1052.84531	1405.81732	-358.43193	-1092.40568	1306.59390	-421.79655	-1088.05676	1321.81290	-351.25699	-1021.62645	1219.14607	-330.51329	-974.92637	1109.55727	-328.23291	-1016.18833	1093.65396	-325.49133	-976.20457	1515.83445	-783.35305	-1052.12803	1308.52784	-740.59670	-1029.21856	1312.56522	-798.86996	-964.17336	1221.18546	-798.59867	-934.22822	1100.93846	-772.03768	-964.45834	1087.01712	-790.10960	-1078.90414	1149.53268	-473.20548	-1071.30276	1144.77097	-673.29641	-1074.28278	1146.69448	-479.16022	-1075.24903	1135.61672	-646.75561	
30	0.29000000	-1069.92768	761.63540	-450.24969	-1072.00314	687.64385	-428.02400	-1178.67556	400.45357	-466.45495	-1247.80009	362.20217	-506.02502	-1078.63581	355.23004	-437.91117	-1034.97347	377.39422	-492.70205	-1110.77573	766.68778	-719.61403	-1092.34646	699.21427	-725.41528	-1179.12604	400.88576	-723.60079	-1248.55518	363.02680	-676.23039	-1086.95864	353.00387	-748.91911	-1038.21251	378.77641	-695.46728	-1105.00556	578.33674	-425.00437	-1144.31810	707.37783	-436.67447	-1184.00126	598.29149	-435.65409	-1176.47942	722.66106	-748.82227	-1192.46424	601.82769	-757.60532	-995.32534	1071.38127	-446.99486	-988.44244	958.69793	-445.24401	-1034.49116	933.08285	-403.34732	-1087.11420	1067.45406	-380.38172	-1088.45370	950.78716	-397.56753	-1016.61260	1041.45639	-736.88748	-1028.62081	903.44003	-730.93707	-1131.02842	1050.42272	-761.33638	-1135.55301	909.49602	-746.13718	-1006.28885	1217.96916	-448.09113	-1184.89185	1252.26569	-522.14399	-998.19001	1208.49432	-701.58832	-1185.33278	1245.42862	-630.79412	-1079.56046	1707.07612	-584.03913	-1035.49053	1649.10238	-425.53086	-1002.23374	1650.57658	-742.95841	-969.18159	1615.84007	-556.42638	-965.95987	1615.05083	-599.99335	-1049.41624	1405.00906	-357.40125	-1089.65258	1306.03887	-421.14244	-1085.17069	1321.24685	-350.28354	-1018.54545	1218.47454	-330.16441	-971.99648	1108.90880	-328.04129	-1013.19528	1093.01862	-325.07146	-970.74594	1514.79593	-781.88439	-1048.46833	1308.17910	-740.42290	-1025.07607	1311.95358	-798.16064	-960.23832	1220.40564	-797.27931	-930.71454	1100.13068	-770.41455	-960.73701	1086.22298	-788.56017	-1078.04770	1148.80865	-472.60141	-1070.72888	1144.07390	-672.70379	-1073.77568	1145.70589	-479.06257	-1074.45453	1135.18433	-646.24229	
31	0.30000000	-1064.77567	760.41878	-450.53275	-1067.27331	686.52686	-428.04015	-1177.89507	400.76738	-466.44191	-1247.56800	362.93715	-506.18145	-1078.37686	354.59687	-437.77954	-1034.42838	376.06829	-492.76532	-1109.63681	766.62977	-719.39522	-1091.28699	699.09044	-724.93579	-1179.21993	400.90136	-723.55795	-1248.57643	363.01221	-676.25812	-1087.06730	352.95719	-748.75496	-1038.21331	378.85932	-695.50851	-1101.47257	577.72578	-424.89509	-1139.35512	707.23827	-436.40522	-1180.36220	598.45988	-435.60584	-1175.31682	722.91252	-748.58415	-1191.95535	602.31004	-757.59515	-993.58750	1070.47693	-446.83458	-985.42559	957.99230	-445.20749	-1030.77596	932.02449	-403.13552	-1084.79591	1065.79404	-380.23930	-1085.01505	949.06778	-397.53733	-1015.00101	1041.13926	-736.47017	-1027.28735	903.13826	-730.78103	-1129.57157	1050.30781	-760.64225	-1134.31270	909.39533	-745.45576	-1004.80234	1216.62938	-447.45042	-1182.81452	1252.18704	-521.56184	-997.01266	1207.36292	-700.58462	-1183.03938	1245.74434	-630.04654	-1073.72120	1706.42987	-582.65763	-1029.96065	1648.16641	-424.24803	-995.87677	1649.50840	-741.15863	-963.77216	1614.40104	-555.04166	-960.50192	1613.59515	-598.43228	-1045.89784	1404.08567	-356.27702	-1086.99662	1305.37168	-420.33994	-1082.22240	1320.57160	-349.25628	-1015.37420	1217.71529	-329.60256	-968.94828	1108.24725	-327.76698	-1010.03268	1092.30997	-324.42446	-965.11416	1513.60550	-780.43280	-1044.37993	1307.27359	-739.43466	-1020.64986	1311.14063	-797.46474	-956.09771	1219.43349	-795.90315	-927.04472	1099.07470	-768.54596	-956.88154	1085.27560	-787.19463	-1076.98429	1147.99516	-471.95931	-1069.63219	1143.45696	-672.06513	-1072.89996	1144.62619	-478.77724	-1073.24595	1134.71021	-645.74206	
